<svg id="outline_logo" xmlns="http://www.w3.org/2000/svg" viewBox="0 0 216.06 228.89"><defs><style>.cls-1{fill:#132849;}.cls-2{fill:#fff;}.cls-3,.cls-4{fill:none;stroke:#6f8208;stroke-miterlimit:10;}.cls-3{stroke-width:0.97px;}.cls-4{stroke-width:0.81px;}.cls-5{font-size:18px;fill:#6f8208;font-family:Apple-Chancery, Apple Chancery;}</style></defs><path id="thick_r_logo" data-name="thick&apos;r_logo" class="cls-1" d="M36.9.75,42.26.69,42.8,43l15.52-.2L57.77.49,64,.41l-.7,98.49L57.64,99l-.08-49.25-15.23.2L41,99.19l-5.65.07ZM14.39,6.8l.28,92.27h6.78L22,6.52H33V.59H0V6.52ZM67.33,99.26l8.46-.19.81-70.65H67.33ZM92.72,61.55H101V39S98.15,28.58,89.66,28.42s-10.38,9.23-10.38,9.23v50.7S80,99.93,90.13,100.06,101,89.69,101,89.69V71.37l-8.09-.28-.13,16.24s1.09,2.86-2.63,2.86-2.82-4.58-2.82-4.58l.3-37.54s-.71-6.58,2.52-6.87,2.32,6.3,2.32,6.3Zm48.52-33.13H131.4L114.4,58V28.42h-11v71.64l11-.19L114,72.05l11,27.82h13.65L122.34,64.24Zm2.76,5.2c.27,4.13,5.91,3.46,5.91,3.46.84,2.25-5.91,4.22-5.91,4.22,14.86-.56,11.48-12.88,11.48-12.88H144A21.64,21.64,0,0,0,144,33.62Zm17-5V99.84h16.26V68.63s13.21.41,16.27,7.74,3,23.25,9,23.47c2.19.08,13.55,0,13.55,0s-7-11.79-6.35-17.53-3.17-16.26-11.63-16.85c0,0,13.51-1.69,13.51-16.06s-5.32-20.32-13.51-20.77S161,28.63,161,28.63Zm43.46,54"/><path id="r_whitespace" class="cls-2" d="M197.33,46.26c-.58-6.35-8.6-6.6-8.6-6.6H175.58s-.18,16.88,0,18H189.7S198.42,58.25,197.33,46.26Z"/><path id="lawn" class="cls-3" d="M12.23,111H27.47l-.58,100.53,21.87.22v15.41H12.23Zm41.53,115.9h13l4.71-33.52H85.87l6,34.4h10.64L84.32,110.4H72.86ZM72.3,182.39H85.87L79.08,132Zm36.51,46h11.13l7.5-75.46,6.36,75.46h9.77L158.11,111H148.8l-10.23,91.58L132.21,111h-8.4l-8.72,91.58L108,111H97.21ZM164.89,111l-2.64,117.4H175.8L179.43,121l10.39,107.42h23.89V111H202.37l-1,100.87L188.2,111Z"/><g id="scotts_logo"><ellipse class="cls-4" cx="139.48" cy="11.9" rx="57.94" ry="11.49"/><text class="cls-5" transform="translate(102.49 17.03) scale(1.8 1)">Scotts</text></g></svg>