<svg id="breakfast" xmlns="http://www.w3.org/2000/svg" viewBox="0 0 103.03 81.74"><defs><style>.cls-1{fill:#a5db7c;}.cls-15,.cls-2{fill:#f1f2f2;}.cls-2{stroke:#53394b;}.cls-18,.cls-2,.cls-3,.cls-4,.cls-5,.cls-6,.cls-8,.cls-9{stroke-miterlimit:10;}.cls-3,.cls-4,.cls-9{fill:#ebd183;}.cls-3,.cls-4,.cls-5{stroke:#552e3b;}.cls-4,.cls-5{stroke-width:2px;}.cls-14,.cls-5{fill:#bdf2f2;}.cls-6,.cls-8{fill:#454e96;}.cls-6,.cls-8,.cls-9{stroke:#773148;}.cls-6{stroke-width:0.87px;}.cls-7{fill:#55347c;}.cls-10{fill:#eab767;}.cls-11{fill:#fff3c4;}.cls-12{fill:#a1e2de;}.cls-13{fill:#f6fffe;}.cls-16{fill:#bfeeea;}.cls-17{fill:#e4ecfa;}.cls-18{fill:none;stroke:#231f20;stroke-width:1.06px;}</style></defs><g id="breakfast_icon"><path id="bg" class="cls-1" d="M7.12,80.14C6.79,79.17-11,49.22,11,23,11,23,26.94,3.76,50.1,4.07S86,22.25,86,22.25s8.09,9.6,9,27.7a49.23,49.23,0,0,1-9,30.68"/><g id="speech"><path id="speech_bubble" class="cls-2" d="M21.84,25.87a6.3,6.3,0,0,0,5.3,4.37V25.66h4.18V11.73H13.4V25.86Z"/><path id="heart_speech" class="cls-3" d="M22.12,17.1s2.07-2.74,3.9,0-3.9,6.21-3.9,6.21-5.39-4.14-3.56-6.21A2.24,2.24,0,0,1,22.12,17.1Z"/></g><line id="line" class="cls-4" y1="80.74" x2="94.83" y2="80.74"/><path id="outline_plate" class="cls-5" d="M18.18,76s.79,4.79,2.14,4.79h49s2.71-4.21,2.13-4.79H13.4V71.3s-.25-1.75,2.85-1.75H71.57s4.37-.58,4.56,1.55a35,35,0,0,1,0,4.85H71.48"/><g id="topping"><g id="berry"><ellipse id="blueberry" class="cls-6" cx="61.66" cy="40.21" rx="3.5" ry="3.63"/><path id="shading_blueberry" class="cls-7" d="M62.38,43.32c2.78-1.58,0-6.25,0-6.25C68.49,40.15,62.59,43.74,62.38,43.32ZM59.78,38c-.25.15-.39.35-.33.46s.31.09.55,0,.39-.36.32-.47S60,37.87,59.78,38Z"/></g><g id="berry-2" data-name="berry"><circle id="blueberry-2" data-name="blueberry" class="cls-8" cx="55.16" cy="39.47" r="4.08"/><path id="shading_blueberry-2" data-name="shading_blueberry" class="cls-7" d="M56,43c3.24-1.77,0-7,0-7C63.12,39.4,56.25,43.44,56,43Zm-3-6c-.28.16-.45.39-.38.52s.36.09.64-.07.45-.39.38-.52S53.25,36.84,53,37Z"/></g></g><path id="pancake" class="cls-9" d="M20.32,69.36s.78-1.16-.58-4.17A3,3,0,0,1,21.29,61H67.22a3.45,3.45,0,0,1,3.88,3.68,4.63,4.63,0,0,1-3.88,4.65ZM67.22,61c2.71,0,3.68-1.94,3.88-4.66S68,51.71,68,51.71l-45.72,0s-3.89-.39-4.1,3.48A6.65,6.65,0,0,0,21.29,61M68,51.71s2.92-.57,3.1-4.64-5.24-4.26-5.24-4.26H22.28s-3.92.57-4.1,4.45,4.1,4.47,4.1,4.47m24.23-8.92V40.68c0-2.12-1.27-2-1.27-2s-9.89-.16-11.2,0-.66,4.18-.66,4.18Z"/><path id="shadow_pancake" class="cls-10" d="M63.15,42.94c.66,0,1.78.05,3.45.12,3,.13,3.9,2.42,4.2,4.81.23,1.8-1.38,3-2.18,3.4a.16.16,0,0,0,0,.29c1.4.64,2.14,4.65,2.14,4.65a5,5,0,0,1-2.34,4.45.15.15,0,0,0,0,.28c1.45.49,2.21,3.14,2.29,3.43a.09.09,0,0,1,0,0,4.44,4.44,0,0,1-3.52,4.36.17.17,0,0,1-.13-.3c3.16-2,0-6.64-.73-7.55a.16.16,0,0,1,.08-.24c5.14-2.34-.21-7.88-1.24-8.88a.16.16,0,0,1,.06-.26c6.75-3.33,0-7.17-2.23-8.3A.16.16,0,0,1,63.15,42.94Zm-19.3-3.87s1.59.54,1.51,1.61a8.09,8.09,0,0,0,0,1.61H46V40s0-1-1-.84Z"/><path id="highlight_pancake" class="cls-11" d="M29.07,44.58s-8.2,1.58-8.55.81,1.76-1.61,1.76-1.61ZM21.5,53s-2.38.7-1.47,1.4S28.58,53,28.58,53Zm.57,9.11s-2.18.56-.57,1.26,9.12-1.26,9.12-1.26Zm12-21.39h.64v-.85s.24-.24,1.07-.24v-.3H34.29S33.92,39.42,34.11,40.68Z"/><path id="shadow_plate" class="cls-12" d="M73.57,70.47a2.38,2.38,0,0,1,1.63.66V75H70.82V70.47S72.61,70.5,73.57,70.47Zm-9.3,9.3h4.5l1.56-2.83H66.14ZM19.38,77c-.27.45,1.12,2.78,1.12,2.78h3.7L22.7,77Z"/><path id="highlight_plate" class="cls-13" d="M15,72.51h1.62s-.44-1.14.26-1.09,4.28,0,4.28,0v-.53H15.44S15,71.29,15,72.51Z"/><g id="berry-3" data-name="berry"><ellipse id="blueberry-3" data-name="blueberry" class="cls-6" cx="18.83" cy="65.19" rx="3.5" ry="3.63"/><path id="shading_blueberry-3" data-name="shading_blueberry" class="cls-7" d="M19.55,68.29c2.79-1.57,0-6.24,0-6.24C25.66,65.13,19.77,68.72,19.55,68.29ZM17,63c-.24.14-.39.35-.32.46s.3.09.54-.06.39-.35.33-.46S17.19,62.85,17,63Z"/></g><g id="beer_breakfast"><g id="beer_color"><polygon class="cls-14" points="59.43 20.56 61.3 24.37 82.14 43.82 86.62 45.93 102.23 29.2 102.01 26.9 100.26 24.4 80.52 5.98 77.22 4.47 75.05 3.83 59.43 20.56"/><ellipse class="cls-15" cx="79.6" cy="25.52" rx="6.74" ry="6.89" transform="translate(6.63 66.3) rotate(-46.98)"/><rect class="cls-15" x="54" y="8.07" width="22.89" height="4.91" transform="translate(13.1 51.19) rotate(-46.98)"/></g><g id="highlights"><polygon class="cls-16" points="82.61 44.26 85.26 46.73 102.05 28.74 100.29 24.37 82.61 44.26"/><rect class="cls-15" x="67.44" y="22.87" width="2.16" height="5.66" transform="translate(2.98 58.26) rotate(-46.98)"/><path class="cls-17" d="M73.81,8.09a3.1,3.1,0,0,1,3.66.47L95.78,25.65l1.07-1.15L78.29,7.18S76.27,6,73.81,8.09Z"/><polygon class="cls-17" points="57.22 18.5 72.67 1.94 71.75 0.75 56.13 17.48 57.22 18.5"/></g><path id="beer_can" class="cls-18" d="M71.75.75,75.3,4.06,59.69,20.8l-3.56-3.32ZM56.13,17.48l3.56,3.32,1.84,3.78S80.11,42.22,82.17,43.85a11.43,11.43,0,0,0,4.45,2.08L102.24,29.2c1.17-1.26-1.95-4.77-1.95-4.77L80.74,6.19c-1.09-1-5.44-2.13-5.44-2.13M61.53,24.58l11.8-12.64m8.84,31.91,9.6-10.29M95.07,30l5.22-5.59m-25.4-3.3a6.62,6.62,0,1,0,9.44-.42A6.69,6.69,0,0,0,74.89,21.13Z"/></g></g></svg>