<svg xmlns="http://www.w3.org/2000/svg" viewBox="0 0 86.09 69.75"><defs><style>.cls-1{fill:#a5db7c;}.cls-2{fill:#bdf2f2;}.cls-3{fill:#f1f2f2;}.cls-4{fill:#bfeeea;}.cls-5{fill:#e4ecfa;}.cls-14,.cls-17,.cls-6,.cls-8{fill:none;}.cls-14,.cls-6,.cls-7,.cls-8{stroke:#231f20;}.cls-14,.cls-17,.cls-6,.cls-7,.cls-8{stroke-miterlimit:10;}.cls-6{stroke-width:0.99px;}.cls-7{fill:#c8e3e2;stroke-width:0.5px;}.cls-9{fill:#b8673d;}.cls-10{fill:#96363d;}.cls-11{fill:#f3a971;}.cls-12{fill:#e24b52;}.cls-13{fill:#eccd7f;}.cls-14{stroke-width:2px;}.cls-15{fill:#f0af74;}.cls-16{fill:#7b2e3f;}.cls-17{stroke:#582943;}.cls-18{fill:#e1adc9;}</style></defs><g id="svg_icons"><g id="dessert_icon"><path id="bg" class="cls-1" d="M6.45,67.92c-.3-.87-16.44-27.61,3.51-51C10,16.89,24.4-.28,45.37,0s32.5,16.24,32.5,16.24S85.19,24.8,86,41a43.56,43.56,0,0,1-8.17,27.39"/><g id="dessert_icon-2" data-name="dessert_icon"><g id="beer_can"><g id="beer_color"><polygon class="cls-2" points="55.76 31.57 54.43 35.53 54.43 64.04 55.76 68.75 75.92 68.75 77.26 67.02 77.82 64.04 77.82 37.04 76.81 33.6 75.92 31.57 55.76 31.57"/><ellipse class="cls-3" cx="64.68" cy="49.69" rx="5.94" ry="6.89"/><rect class="cls-3" x="55.76" y="26.66" width="20.15" height="4.91"/></g><g id="highlights"><polygon class="cls-4" points="54.43 64.68 54.43 68.3 76.1 68.3 77.85 64.04 54.43 64.68"/><rect class="cls-3" x="56.96" y="38.89" width="1.9" height="5.66"/><path class="cls-5" d="M72.42,33.57a3,3,0,0,1,1.9,3v25H75.7V36.23A3.58,3.58,0,0,0,72.42,33.57Z"/><polygon class="cls-5" points="55.76 28.54 75.7 28.54 75.92 27.05 55.76 27.05 55.76 28.54"/></g><path id="beer_can-2" data-name="beer_can" class="cls-6" d="M75.91,27.05v4.87H55.76V27.05Zm-20.15,0v4.87l-1.33,3.92s-.19,25.62,0,28.24a12.51,12.51,0,0,0,1.33,4.67H75.91c1.53,0,1.91-4.67,1.91-4.67V37.34c0-1.5-1.91-5.42-1.91-5.42M54.43,35.84H69.66M54.43,64.08H66.82m4.26,0h6.74M64.68,43.25c-3.28,0-5.94,3-5.94,6.62s2.66,6.62,5.94,6.62,5.94-3,5.94-6.62S68,43.25,64.68,43.25Z"/><path id="bubble_beer" class="cls-7" d="M65.39,12.23a2.15,2.15,0,1,1-2.15-2.15A2.15,2.15,0,0,1,65.39,12.23ZM57,15.06a2.43,2.43,0,1,0,2.43,2.43A2.43,2.43,0,0,0,57,15.06ZM58.1,5.65a2.09,2.09,0,1,0,2.08,2.08A2.08,2.08,0,0,0,58.1,5.65Z"/></g><g id="iccream"><path id="color_cup" class="cls-3" d="M4.08,35.84v6.63H6.77L9.68,68.75H45.83l2.65-25.5L51,42.81v-7Z"/><polygon id="color_crown" class="cls-3" points="20.52 58.95 33.94 58.95 34.22 50.93 30.62 55.22 27.54 50.16 24.05 54.32 20.52 51.35 20.52 58.95"/><path id="outline_cup" class="cls-8" d="M40.88,50.93h6.8M6.77,42.47,9.68,68.75H45.83l2.7-25.94L4.08,42.47V35.84H51v7H48.53M16.75,62.45H9m11.54-11.1,3.6,3,3.42-4.63,3.08,5.53,3.31-3.73V59H20.52Z"/><path class="cls-9" d="M12.5,30.19H43.7s4.12.77,3.16,3.44-2.58,2.21-2.58,2.21-2.42-.13-2.43,1.06,0,5.86,0,5.86.47,1.66-2.22,1.79-2.14-1.74-2.14-1.74l-.06-6.28a2,2,0,0,0-1.56-.69H27.23s-1-.2-1,1.53.09,4.43.09,4.43-.87,1.71-1.87,1.72-1.91-.25-2.14-1.22-.36-4.93-.36-4.93-.37-1.54-1.41-1.48-1.8.29-2,1.48-.47,7.57-.47,7.57-.77,1.17-1.69,1a5.61,5.61,0,0,1-2-1s-1.14-.94-.57-4.46-.38-4.68-.38-4.68h-4s-1.13.68-1.66-3S12.5,30.19,12.5,30.19Z"/><path class="cls-10" d="M41.38,30.19s3.56.83,3.6,3.06c0,0,.45,1.33-3.38,1.16,0,0-1.34-.4-1.25,2.8s0,5.26,0,5.26,0,2.13-1.77,1.91c0,0,2.69.9,3.21-.55s.2-7.56.2-7.56a1.11,1.11,0,0,1,1-.5A23.14,23.14,0,0,0,46,35.41a8.33,8.33,0,0,0,.91-2.68,5.18,5.18,0,0,0-.64-1.6l-2-1.18Z"/><path id="spoon" class="cls-11" d="M35.29,5.36s1.62-4.07,3.6-2.6,1,2.89,1,2.89l-4,8.88-4.44.23ZM16.82,8.87S15.25,5.1,13.68,6.58,13,9.36,13,9.36l3.83,8.21h3.71Z"/><g id="icecream_balls"><path class="cls-3" d="M19.16,17.45s-.09-6.1,4.64-6.59a12.52,12.52,0,0,1,8,1.89v1.93S26.49,17,26.19,19.24C26.19,19.24,21.34,17.31,19.16,17.45Z"/><path class="cls-12" d="M26.06,20.07s-3-2.94-5.86-2.43-6.6.83-7.92,5.54,1.52,7.16,1.52,7.16H29.52Z"/><path class="cls-13" d="M27.75,30.19s-5.63-7,.45-13.4,14,2.07,14,2.07S46.33,26,41.09,30Z"/></g><line id="line" class="cls-14" x1="1.63" y1="68.75" x2="83.73" y2="68.75"/><g id="shadow_icecream"><path class="cls-15" d="M34.56,15S45.22,20.43,40,30.19l1.1-.23s4.41-5.13,2-9.08S39.42,14.64,34.56,15Z"/><path class="cls-16" d="M22.15,17.9s2.31,2.59,1.74,3.75S22.8,27.57,25.08,30l2.46.24s-3.55-4.69-2-8.64l.48-1.48Z"/></g><path id="outline_icecream" class="cls-17" d="M9.74,30.19H44.28s2.63.4,2.58,2.54-.84,3.11-2.2,3.11-2.76-.51-2.81,1.06,0,6.63,0,6.63,0,1-2.24,1-2.14-1.74-2.14-1.74l-.06-6.28s.16-.69-1-.69H26.51s-.32-.51-.32,2.73l.11,3.23a2.28,2.28,0,0,1-2.25,1.78c-2,.21-2-2.77-2-2.92s-.11-3.76-.11-3.76A1.88,1.88,0,0,0,20,35.84c-1.56,0-1.61,2.73-1.61,2.73l-.11,5.37a1.87,1.87,0,0,1-1.88,2,2.63,2.63,0,0,1-2.55-2l-.16-7.72s.21-.38-1.15-.38H9s-1.09-.66-1.25-3A2.5,2.5,0,0,1,9.74,30.19ZM25.58,19.92s-3.6-4.4-9.81-1.46S12.5,30.19,12.5,30.19m28.88,0C46.72,21.32,39.64,16,39.64,16s-8.94-4.47-13,2.39a9.75,9.75,0,0,0,.87,11.84M35.9,14.53l4-8.88s.46-2.05-1-2.89S36,3.51,36,3.51L31.82,14.38m.43-1.13s-1.28-2.2-6.67-2.48a5.89,5.89,0,0,0-6.42,4.29v2.39m.55-3.73-4-7.66a2.89,2.89,0,0,0-2.49.34,1.85,1.85,0,0,0-.64,2.5l3.86,9.27"/><path id="highlight_icecream" class="cls-18" d="M18.12,31.89c1.82.29.2,1.87.2,1.87s-3.88.47-5.27,0-.29-1.87-.29-1.87m7.13.9c.05.91.69.89.69.89h2.11s.88.09.86-.75-.37-1-.37-1H20.36S19.85,31.87,19.89,32.79Z"/></g></g></g></g></svg>