<svg id="outline" xmlns="http://www.w3.org/2000/svg" viewBox="0 0 612 323.66"><defs><style>.cls-1{fill:#2db09d;}.cls-2,.cls-6{fill:#231f20;}.cls-10,.cls-2,.cls-3{stroke:#231f20;stroke-miterlimit:10;}.cls-2{stroke-width:3.62px;}.cls-3,.cls-4{fill:#fff;}.cls-3{stroke-width:1.21px;}.cls-5{fill:#000208;}.cls-10,.cls-7{font-size:75.67px;}.cls-10,.cls-11,.cls-7{font-family:DINCondensed-Bold, DIN Condensed;font-weight:700;}.cls-8{letter-spacing:-0.05em;}.cls-9{font-family:MyriadPro-Regular, Myriad Pro;font-weight:400;letter-spacing:0em;}.cls-10{fill:none;stroke-width:2px;}.cls-11{font-size:21px;}</style></defs><rect class="cls-1" width="612" height="323.66"/><g id="bottle"><path class="cls-2" d="M195.18,320.09s-4.59-67.08-3.43-79-3.48-33.62-6.57-41.71-8.88-22.12-8.88-22.12-1.93-7.24,0-8.52c0,0-7.32,3.85-7.71-3.82a77.84,77.84,0,0,1,0-11.06s1.16-3.41-3.08-7.24l-2.84-1.4-2.72,2.14-3.1-6.57s-2-6,0-8.57a70.57,70.57,0,0,1,25.24-18.89c13.72-5.88,17-6.88,17-6.88s10.61-4.16,15.79,0a52.35,52.35,0,0,1,8.55,8.71l-8.16,5.15s10.62,3.42,4.92,9.42a7.49,7.49,0,0,0,3.24,7.17,53.85,53.85,0,0,1,8.06,7.79s3.84,4,.38,8.38,24.53,53.14,31.78,56.56l53.53,62.29s12.67,14.26,7.5,19.4c0,0,4.92,1.71,12.16,14.26l7.51,14.35Z"/><path class="cls-3" d="M193.7,227.88s8.15-5.1,23.23-3.75c0,0,14.19,1.54,16,.56L214,173.08l24.37,51.64s10-2.12,10-3.17-17.2-30.91-17.2-30.91,42.69,63.21,46,64.79a373.55,373.55,0,0,0-23.1-35.82l8.12-5.38s15.45,19.41,19.43,21.33c0,0-36.07-42.27-40.84-55.26,0,0-11-23.63-10.8-25,0,0-5.12-.35-3.38,2.89s16.13,37.73,21.14,40.84l2.07,3.85s-7.4-4.45-26.12-43.39c0,0-.56-2.77-4.63-1.61s-15,3.24-19.74,6.25c0,0-4.7,1.5-1.88-1.62,0,0,19.74-7.24,22.77-7.21,0,0,6.27-2.85-.42-2.61s-25.48,7.87-25.48,7.87-2.93,2.08-3.24-.11,26.74-9.84,26.74-9.84,3.55.23.2-3.45l-4.59-6.45s.83-3.35-5.23-1.5-24.33,6.26-25.17,8.8c0,0-3.23,1.61-4.17.58s1.67-2.77,1.67-2.77S208,135.1,212.18,135.79c0,0,2.3-.23,2.2-1.62s-2.83-1-2.83-1-29.34,7.41-31.64,9.84l-10,4.62s2.41,1.84,1.36,10.84,3.31,8.54,3.31,8.54,5.81-.32,6.23-1.57a10.84,10.84,0,0,1-3.39,4.69s-1.42.2,5.3,12.76S193.9,222,193.7,227.88Z"/><g id="top"><path class="cls-4" d="M216.36,140s-3.17-4.12,2.39-2.34l7,8.24s2.73,3.26-.65,3c0,0-1.13.62-2.82-1.4S216.36,140,216.36,140Z"/><ellipse class="cls-4" cx="227.31" cy="151.92" rx="1.71" ry="1.13" transform="translate(-45.79 164.72) rotate(-36.44)"/><path class="cls-4" d="M211.1,129.09l-1.55-4.89h5.58s2.68,0,2.27,2.45C217.4,126.64,216.06,128.29,211.1,129.09Z"/><path class="cls-4" d="M204.21,130a1.65,1.65,0,0,0,1.78-2.12l-.4-2.26s.32-1-2.46-.74-20.59,6.33-20.59,6.33-2.83,4.37-7.36,4.2c0,0-1.38,3.44-6.34,4.93L167,141.66s-2.57,3.05,2.4,1.29C169.37,143,188.79,132.8,204.21,130Z"/></g><path class="cls-3" d="M157.78,139.73s-1.84-4.36.45-7.5c0,0,9.82-11,23.38-16.48a80.61,80.61,0,0,1,20.93-9c12-3.19,13.64,2.91,17.92,6.73l-2.22-.24s-3.09,3.18-6.48,1.8a9.17,9.17,0,0,1-8.55,3.1s-2.87,4.6-10,4.63c0,0-4.72,6.45-11.06,5.57a11.4,11.4,0,0,1-9.21,5.84,8.88,8.88,0,0,1-7.74,5s.67,3.23-4.35,4.31l-.14,1.55A11.15,11.15,0,0,1,157.78,139.73Z"/><path id="cap_detail" class="cls-5" d="M162.15,140c.56-1.53-1.54-4.13-1.54-4.13.3,1.53-1.65,1.42-1.65,1.42C160.86,140.6,162.15,140,162.15,140Zm-3.6-.67s1.75,2,1.54,3.39C160.09,142.75,158.81,142,158.55,139.36Zm7.75-9.13,2.16,3.71c.51,2.12-2.15,1.5-2.15,1.5l-2.58-3C167.38,133.8,166.3,130.23,166.3,130.23Zm4.77-2.95a3.15,3.15,0,0,0,3.29-.23,1.9,1.9,0,0,0,.56-2.67l2.05,3.26s.72,1.33-1.12,2.58c0,0-1.08.79-2.57-.79A22.69,22.69,0,0,0,171.07,127.28Zm13.53-5.51c2.2-.56,1.81-3.41,1.81-3.41l1.75,3.23s1,1.36-1.64,2.78-3.34.54-3.34.54l-2.31-3A7.67,7.67,0,0,0,184.6,121.77Zm8.33-6.16a2.12,2.12,0,0,0,2.92.55C197.69,115.1,197,114,197,114a21.93,21.93,0,0,1,2.07,3.39c.27.88-2,1.86-2,1.86s-1.57.47-2-.33S192.93,115.61,192.93,115.61Zm9.74-4.12a2.16,2.16,0,0,0,2.19.38c1.12-.55,1.46-.72,1.17-1.52l1.52,3.17a1.33,1.33,0,0,1-.77,1.7C205.55,115.89,203.9,113.57,202.67,111.49Zm10-1.15-.13-1.74,1.61,2.4s.41,1.38.1,1.52-1.27-.37-1.27-.37l-2.26-2.69A7.43,7.43,0,0,0,212.68,110.34Zm2.2-.71s2.76,1.28,2.81,2.6Z"/><path id="bottle_detail" class="cls-6" d="M185.32,171.89s-2.75.47-.74,5,12.93,28.33,12.93,45.69c0,0-4.24-22-9-31.26l-4.66-11.22s-3.29-5.61-1.38-7.71S185.32,171.89,185.32,171.89Z"/><path id="highlight_beer" class="cls-4" d="M290.28,270.91l16.32,18.52s3,3.66,6.15,2.59,5.46-2,5.46-2-1.17,2.21-5.18,3.21-4.22.31-5.67-.45S297.13,281,297.13,281l-6.85-9.3Z"/></g><text class="cls-7" transform="translate(352.02 117.99) scale(0.94 1)"><tspan class="cls-8">T</tspan><tspan x="20.96" y="0">AKE A</tspan><tspan class="cls-9" x="156.86" y="0"> </tspan></text><text class="cls-10" transform="translate(353.49 182.55) scale(0.94 1)">LOOK!</text><text class="cls-11" transform="translate(353.64 210.12) scale(0.94 1)">A DRINK FOR ANYTIME, ANYMWHERE</text></svg>