<svg id="beer_icon" xmlns="http://www.w3.org/2000/svg" viewBox="0 0 78.04 73.12"><defs><style>.cls-1{fill:#a5db7c;}.cls-2{fill:none;stroke-width:2.35px;}.cls-2,.cls-3,.cls-4{stroke:#231f20;stroke-miterlimit:10;}.cls-3{fill:#ffe155;stroke-width:1.17px;}.cls-4,.cls-5{fill:#fff;}.cls-4{stroke-width:0.59px;}.cls-6{fill:#ece8e6;}.cls-7{fill:ivory;}</style></defs><g id="beer_icon-2" data-name="beer_icon"><path id="bg" class="cls-1" d="M5.84,71.49C5.57,70.57-9.06,42.43,9,17.77,9,17.77,22.11-.29,41.12,0S70.57,17.09,70.57,17.09s6.64,9,7.4,26a50.62,50.62,0,0,1-7.4,28.82"/><line class="cls-2" x1="0.97" y1="71.12" x2="78.02" y2="71.94"/><path id="glass_beer" class="cls-3" d="M21.61,14.42,25,69.14a33,33,0,0,0,26.68,0l3.8-54.72C55.44,17.25,37.9,23.71,21.61,14.42Z"/><path id="foam_beer" class="cls-4" d="M22.93,12.17s19.72-3.42,30.64,0c0,0,7.58,3-8.84,4.28,0,0-.27,1.61-2.71,1.71s-2.9-1.62-2.9-1.62S14.4,16.07,22.93,12.17Zm-1.79,1.42.57,9S26.5,26.14,38.23,26s16.6-3.32,16.6-3.32l.47-9"/><ellipse id="foam_top" class="cls-5" cx="38.45" cy="13.51" rx="16.84" ry="2.5"/><path id="shadowfoam_beer" class="cls-6" d="M28.46,17.78V23s-4.94.4-5.32-2.14a9.17,9.17,0,0,1,0-3.73Zm5.64.38v5.18s17.68,1,19.84-2.59L54.3,16S41.89,21.26,34.1,18.16Zm8.52-6.46s1.36,3.64-3.94,3.81c0,0,14,.3,14.07-1.9C52.82,11.7,42.62,11.7,42.62,11.7ZM24.76,13.61c-.64,1.32,6.92,1,6.92,1l.4-2.88S25.41,12.3,24.76,13.61Z"/><path id="highlight_glass" class="cls-7" d="M28.54,25.39s0,.27,5.07.71l.68,45a26.62,26.62,0,0,1-2.73-.48C31.49,70.53,28.54,25.39,28.54,25.39Z"/></g></svg>