<svg id="outline_logo" xmlns="http://www.w3.org/2000/svg" width="3in" height="3.17in" viewBox="0 0 216.06 228.58">
  <defs>
    <style>
      .cls-1, .cls-3 {
        fill: #6f8208;
        stroke: #6f8208;
        stroke-miterlimit: 10;
      }

      .cls-1 {
        stroke-width: 0.97px;
      }

      .cls-2 {
        fill: #231f20;
      }

      .cls-3 {
        stroke-width: 0.81px;
      }

      .cls-4 {
        font-size: 18px;
        fill: #fff;
        font-family: Apple-Chancery, Apple Chancery;
      }

      .cls-5 {
        letter-spacing: 0.01em;
      }

      .cls-6 {
        letter-spacing: -0.01em;
      }
    </style>
  </defs>
  <path id="lawn" class="cls-1" d="M12.23,110.7H27.47l-.58,100.53,21.87.23v15.41H12.23Zm90.26,116.78H91.85l-6-34.4H71.46L66.75,226.6h-13l19.1-116.51H84.32Zm-16.62-45.4-6.79-50.42L72.3,182.08Zm22.94,46h11.13l7.5-75.46,6.36,75.46h9.77l14.54-117.4H148.8l-10.23,91.58-6.36-91.58h-8.4l-8.72,91.58L108,110.7H97.21Zm56.08-117.4-2.64,117.4H175.8l3.63-107.41L189.82,228.1h23.89V110.7H202.37l-1,100.88L188.2,110.7Z"/>
  <path id="thickr" class="cls-2" d="M36.9.75,42.26.69,42.8,43l15.52-.2L57.77.49,64,.41l-.7,98.49L57.64,99l-.08-49.25-15.23.2L41,99.19l-5.65.07ZM14.39,6.8l.28,92.27h6.78L22,6.52H33V.59H0V6.52ZM67.33,99.26l8.46-.19.81-70.65H67.33ZM92.72,61.55H101V39S98.15,28.58,89.66,28.42s-10.38,9.23-10.38,9.23v50.7S80,99.93,90.13,100.06,101,89.69,101,89.69V71.37l-8.09-.28-.13,16.24s1.09,2.86-2.63,2.86-2.82-4.58-2.82-4.58l.3-37.54s-.71-6.58,2.52-6.87,2.32,6.3,2.32,6.3Zm48.52-33.13H131.4L114.4,58V28.42h-11v71.64l11-.19L114,72.05l11,27.82h13.65L122.34,64.24Zm2.76,5.2c.27,4.13,5.91,3.46,5.91,3.46.84,2.25-5.91,4.22-5.91,4.22,14.86-.56,11.48-12.88,11.48-12.88H144A21.64,21.64,0,0,0,144,33.62Zm65.71,48.69c.65-5.74-3.17-16.26-11.63-16.85,0,0,13.51-1.69,13.51-16.06s-5.32-20.32-13.51-20.77-37.09,0-37.09,0V99.84h16.26V68.63s13.21.41,16.27,7.74,3,23.25,9,23.47c2.19.08,13.55,0,13.55,0S209.05,88.05,209.71,82.31Zm-20-24.7H175.58c-.18-1.07,0-18,0-18h13.15s8,.25,8.6,6.6C198.42,58.25,189.7,57.61,189.7,57.61Z"/>
  <g id="scotts_logo">
    <ellipse id="oval" class="cls-3" cx="139.48" cy="11.9" rx="57.94" ry="11.49"/>
    <text id="scotts" class="cls-4" transform="translate(102.49 17.03) scale(1.8 1)"><tspan class="cls-5">S</tspan><tspan class="cls-6" x="8.98" y="0">c</tspan><tspan x="16.94" y="0">otts</tspan></text>
  </g>
</svg>
