<svg id="outline" xmlns="http://www.w3.org/2000/svg" width="1447" height="700" viewBox="0 0 1447 700">
  <defs>
    <style>
      .cls-1 {
        fill: #2db09d;
      }

      .cls-2, .cls-6 {
        fill: #231f20;
      }

      .cls-2, .cls-3 {
        stroke: #231f20;
        stroke-miterlimit: 10;
      }

      .cls-2 {
        stroke-width: 7.73px;
      }

      .cls-3, .cls-4 {
        fill: #fff;
      }

      .cls-3 {
        stroke-width: 2.58px;
      }

      .cls-5 {
        fill: #000208;
      }
    </style>
  </defs>
  <rect class="cls-1" width="1447" height="700"/>
  <g id="bottle">
    <path class="cls-2" d="M351.75,696.08s-9.7-144.91-7.26-170.66-7.37-72.64-13.9-90.11-18.79-47.8-18.79-47.8-4.09-15.62,0-18.39c0,0-15.5,8.3-16.32-8.25s0-23.91,0-23.91,2.45-7.36-6.54-15.63l-6-3-5.75,4.64-6.58-14.19s-4.11-13,0-18.52S295,262.1,324,249.41s35.89-14.86,35.89-14.86,22.46-9,33.43-.05a111.75,111.75,0,0,1,18.08,18.81l-17.26,11.13s22.48,7.38,10.42,20.36a16.33,16.33,0,0,0,6.86,15.47c8.63,6.45,17.06,16.84,17.06,16.84s8.13,8.6.81,18.11S481.22,450,496.55,457.41L609.85,592s26.84,30.81,15.89,41.92c0,0,10.41,3.69,25.75,30.81l15.88,31Z"/>
    <path class="cls-3" d="M348.61,496.86s17.27-11,49.18-8.1c0,0,30,3.35,33.78,1.23L391.5,378.49l51.59,111.56s21.23-4.58,21.23-6.86-36.41-66.78-36.41-66.78,90.36,136.57,97.43,140c0,0-22.59-41.36-48.88-77.39l17.18-11.61s32.7,41.92,41.13,46.08c0,0-76.37-91.32-86.45-119.39,0,0-23.33-51.05-22.87-53.91,0,0-10.83-.76-7.14,6.24s34.13,81.5,44.74,88.23l4.38,8.31s-15.65-9.62-55.28-93.73c0,0-1.18-6-9.8-3.49s-31.84,7-41.79,13.5c0,0-9.94,3.25-4-3.48,0,0,41.79-15.64,48.2-15.58,0,0,13.26-6.17-.89-5.65s-53.94,17-53.94,17-6.19,4.49-6.85-.24S399.69,330,399.69,330s7.52.49.44-7.47l-9.73-13.94s1.77-7.22-11.06-3.22-51.51,13.52-53.27,19c0,0-6.86,3.49-8.85,1.25s3.54-6,3.54-6,58.14-23.23,67-21.75c0,0,4.87-.51,4.64-3.49s-6-2.24-6-2.24-62.12,16-67,21.26l-21.22,10s5.09,4,2.88,23.4,7,18.46,7,18.46,12.29-.69,13.18-3.39a23.57,23.57,0,0,1-7.19,10.13s-3,.43,11.22,27.57S349.05,484.07,348.61,496.86Z"/>
    <g id="top">
      <path class="cls-4" d="M396.58,307.09s-6.71-8.9,5.07-5l14.82,17.79s5.76,7.05-1.39,6.55c0,0-2.39,1.35-6-3S396.58,307.09,396.58,307.09Z"/>
      <ellipse class="cls-4" cx="419.77" cy="332.77" rx="3.65" ry="2.43" transform="translate(-115.88 327.92) rotate(-37.89)"/>
      <path class="cls-4" d="M385.46,283.46l-3.28-10.57,11.79,0s5.68,0,4.81,5.29C398.78,278.16,395.94,281.73,385.46,283.46Z"/>
      <path class="cls-4" d="M370.88,285.49s4.58.3,3.75-4.58L373.8,276s.67-2-5.23-1.59S325,288.1,325,288.1s-6,9.44-15.59,9.08c0,0-2.9,7.42-13.41,10.65l-3.95,2.79s-5.44,6.59,5.07,2.77C297.12,313.39,338.23,291.46,370.88,285.49Z"/>
    </g>
    <path class="cls-3" d="M272.58,306.43s-3.89-9.41,1-16.2c0,0,20.78-23.79,49.48-35.6a168.67,168.67,0,0,1,44.31-19.39c25.43-6.89,28.86,6.29,37.91,14.54l-4.68-.52s-6.55,6.86-13.72,3.88a19.27,19.27,0,0,1-18.1,6.7s-6.08,9.94-21.22,10c0,0-10,13.94-23.4,12,0,0-5.61,11.7-19.5,12.64a18.83,18.83,0,0,1-16.37,10.78s1.4,7-9.21,9.31l-.31,3.36S274.7,314.4,272.58,306.43Z"/>
    <path id="cap_detail" class="cls-5" d="M281.83,307.1c1.19-3.31-3.26-8.93-3.26-8.93.65,3.3-3.48,3.06-3.48,3.06C279.11,308.32,281.83,307.1,281.83,307.1Zm-7.6-1.46s3.69,4.4,3.26,7.33C277.49,313,274.77,311.26,274.23,305.64Zm16.4-19.73,4.56,8c1.08,4.59-4.55,3.25-4.55,3.25l-5.45-6.48C292.91,293.62,290.63,285.91,290.63,285.91Zm10.09-6.37a6.55,6.55,0,0,0,7-.5,4.15,4.15,0,0,0,1.19-5.75l4.35,7s1.52,2.87-2.39,5.57c0,0-2.28,1.71-5.43-1.71A51.19,51.19,0,0,0,300.72,279.54Zm28.65-11.89c4.64-1.22,3.83-7.36,3.83-7.36l3.69,7s2.07,2.93-3.47,6-7.06,1.16-7.06,1.16l-4.89-6.53A16,16,0,0,0,329.37,267.65ZM347,254.34a4.43,4.43,0,0,0,6.17,1.19c3.9-2.3,2.44-4.67,2.44-4.67s3.82,5.39,4.39,7.31-4.23,4-4.23,4-3.33,1-4.3-.73S347,254.34,347,254.34Zm20.63-8.9s2.27,2,4.63.82,3.07-1.56,2.47-3.3l3.21,6.86s1,2.2-1.62,3.66S370.22,249.92,367.62,245.44Zm21.17-2.5-.26-3.75,3.39,5.19s.88,3,.22,3.28-2.69-.8-2.69-.8l-4.78-5.81C385.22,241.79,388.79,242.94,388.79,242.94Zm4.67-1.53s5.83,2.78,5.94,5.62Z"/>
    <path id="bottle_detail" class="cls-6" d="M330.88,375.91s-5.83,1-1.56,10.86,27.36,61.21,27.37,98.71c0,0-9-47.59-19.07-67.53l-9.86-24.23s-7-12.11-2.93-16.66S330.88,375.91,330.88,375.91Z"/>
    <path id="highlight_beer" class="cls-4" d="M553.05,589.83l34.55,40s6.29,7.91,13,5.59,11.56-4.3,11.56-4.3-2.48,4.78-11,6.94-8.93.67-12-1-21.67-25.52-21.67-25.52l-14.49-20.09Z"/>
  </g>
</svg>
